<?xml version="1.0" encoding="utf-8"?>
<!-- Generator: Adobe Illustrator 16.0.0, SVG Export Plug-In . SVG Version: 6.00 Build 0)  -->
<!DOCTYPE svg PUBLIC "-//W3C//DTD SVG 1.1//EN" "http://www.w3.org/Graphics/SVG/1.1/DTD/svg11.dtd">
<svg version="1.1" id="Layer_2" xmlns="http://www.w3.org/2000/svg" xmlns:xlink="http://www.w3.org/1999/xlink" x="0px" y="0px"
	 width="200.5px" height="63px" viewBox="0 -17 200.5 63" enable-background="new 0 -17 200.5 63" xml:space="preserve">
<g>
	<g>
		<path d="M31.706,6.106h3.869l3.427,11.386l3.427-11.386h3.87l-5.042,15.477h-4.51L31.706,6.106z"/>
		<path d="M57.35,18.178v3.405h-9.729V6.106h9.618v3.405h-6.08v2.565h5.527v3.361h-5.527v2.74H57.35z"/>
		<path d="M58.563,13.845c0-4.555,3.383-8.048,8.048-8.048c2.808,0,5.284,1.393,6.633,3.582l-3.051,1.769
			c-0.685-1.194-2.012-1.901-3.582-1.901c-2.742,0-4.511,1.835-4.511,4.599c0,2.763,1.769,4.599,4.511,4.599
			c1.57,0,2.918-0.707,3.582-1.901l3.051,1.769c-1.327,2.189-3.803,3.582-6.633,3.582C61.945,21.893,58.563,18.4,58.563,13.845z"/>
		<path d="M85.29,9.511h-3.98v12.072h-3.538V9.511h-3.979V6.106H85.29V9.511z"/>
		<path d="M85.287,13.845c0-4.555,3.604-8.048,8.048-8.048s8.047,3.494,8.047,8.048s-3.604,8.048-8.047,8.048
			C88.891,21.893,85.287,18.4,85.287,13.845z M97.846,13.845c0-2.764-1.99-4.599-4.51-4.599s-4.511,1.835-4.511,4.599
			c0,2.765,1.99,4.599,4.511,4.599S97.846,16.609,97.846,13.845z"/>
		<path d="M108.587,16.499h-1.681v5.085h-3.537V6.106h6.189c2.941,0,5.308,2.366,5.308,5.307c0,1.901-1.149,3.626-2.853,4.487
			l3.295,5.684h-3.804L108.587,16.499z M106.906,13.403h2.652c0.975,0,1.771-0.862,1.771-1.99s-0.796-1.99-1.771-1.99h-2.652V13.403
			z"/>
		<path d="M120.501,6.106v15.477h-3.538V6.106H120.501z"/>
		<path d="M133.213,18.178v3.405H122.6v-2.741l5.926-9.331h-5.813V6.106h10.392v2.742l-5.926,9.33H133.213z"/>
		<path d="M144.264,19.152h-5.748l-0.773,2.432h-3.869l5.262-15.477h4.512l5.263,15.477h-3.869L144.264,19.152z M143.202,15.834
			l-1.813-5.682l-1.813,5.682H143.202z"/>
		<path d="M159.518,9.511h-3.979v12.072H152V9.511h-3.98V6.106h11.498V9.511z"/>
		<path d="M164.6,6.106v15.477h-3.537V6.106H164.6z"/>
		<path d="M166.587,13.845c0-4.555,3.604-8.048,8.048-8.048c4.444,0,8.049,3.494,8.049,8.048s-3.604,8.048-8.049,8.048
			C170.191,21.893,166.587,18.4,166.587,13.845z M179.146,13.845c0-2.764-1.99-4.599-4.512-4.599c-2.521,0-4.51,1.835-4.51,4.599
			c0,2.765,1.989,4.599,4.51,4.599C177.156,18.443,179.146,16.609,179.146,13.845z"/>
		<path d="M196.83,6.106v15.477h-2.653l-5.97-8.402v8.402h-3.538V6.106h2.653l5.97,8.402V6.106H196.83z"/>
	</g>
	<path fill="#EF4453" d="M20.592,1.449l-2.113,2.113l0.847,0.847C12.86,7.774,8.245,6.751,8.245,6.751L2.348,25.089l7.602-7.61
		c-0.061-0.107-0.117-0.218-0.167-0.332c-0.215-0.489-0.336-1.027-0.335-1.598c-0.001-2.034,1.531-3.71,3.503-3.938
		c0.152-0.018,0.307-0.028,0.463-0.028c2.19,0,3.966,1.775,3.966,3.967c0.001,0.156-0.01,0.312-0.027,0.464
		c-0.229,1.971-1.904,3.504-3.938,3.502c-0.697,0-1.353-0.18-1.922-0.496L3.91,26.605l18.304-5.888c0,0-1.023-4.614,2.342-11.08
		l1.259,1.259l2.113-2.114L20.592,1.449z"/>
</g>
</svg>
